<?xml version="1.0" encoding="utf-8"?>
<!-- Generator: Adobe Illustrator 25.2.1, SVG Export Plug-In . SVG Version: 6.00 Build 0)  -->
<svg version="1.1" id="Layer_1" xmlns="http://www.w3.org/2000/svg" xmlns:xlink="http://www.w3.org/1999/xlink" x="0px" y="0px"
	 viewBox="0 0 500 500" style="enable-background:new 0 0 500 500;" xml:space="preserve">
<style type="text/css">
	.st0{fill:#B89F66;}
</style>
<g>
	<path class="st0" d="M89.4,412.4l-1.8-1.8c-15.4-15.4-15.3-40.3,0-55.6L355,87.6c15.4-15.4,40.3-15.3,55.6,0l1.8,1.8
		c15.4,15.4,15.3,40.3,0,55.6L145,412.4C129.6,427.8,104.6,427.6,89.4,412.4z"/>
	<path class="st0" d="M87.6,89.4l1.8-1.8c15.4-15.4,40.3-15.3,55.6,0L412.4,355c15.4,15.4,15.3,40.3,0,55.6l-1.8,1.8
		c-15.4,15.4-40.3,15.3-55.6,0L87.6,145C72.3,129.6,72.3,104.7,87.6,89.4z"/>
</g>
</svg>
