<?xml version="1.0" encoding="utf-8"?>
<!-- Generator: Adobe Illustrator 25.2.1, SVG Export Plug-In . SVG Version: 6.00 Build 0)  -->
<svg version="1.1" id="Layer_1" xmlns="http://www.w3.org/2000/svg" xmlns:xlink="http://www.w3.org/1999/xlink" x="0px" y="0px"
	 viewBox="0 0 500 500" style="enable-background:new 0 0 500 500;" xml:space="preserve">
<style type="text/css">
	.st0{fill:#27AAE1;}
</style>
<path class="st0" d="M376.3,126.3C376.1,57,319.9,0.8,250.6,0.6L250,0l-0.6,0.6c-68.6,0.5-123.9,56.6-125.1,125.1L0,250l250,250
	l250-250L376.3,126.3z M124.3,299.7L74.6,250l49.8-49.8L124.3,299.7L124.3,299.7z M296.7,339.5l-0.6,0.2
	c-29.6,11.8-62.6,11.7-92.3-0.2l0,0V198.6c0-25.5,20.3-46.8,45.8-47.1c25.9-0.3,47.1,20.5,47.1,46.4V339.5z M376.3,200.9l49.2,49.2
	l-49.2,49.2V200.9z"/>
</svg>
