<?xml version="1.0" encoding="utf-8"?>
<!-- Generator: Adobe Illustrator 25.2.0, SVG Export Plug-In . SVG Version: 6.00 Build 0)  -->
<svg version="1.1" id="Layer_1" xmlns="http://www.w3.org/2000/svg" xmlns:xlink="http://www.w3.org/1999/xlink" x="0px" y="0px"
	 viewBox="0 0 500 500" style="enable-background:new 0 0 500 500;" xml:space="preserve">
<style type="text/css">
	.st0{fill:#27AAE1;}
</style>
<g>
	<path class="st0" d="M250-0.6L-0.6,250L250,500.6L500.6,250L250-0.6z M250,74.2L425.8,250l-54.6,54.6l-20.5-19.3
		c-19.7-18.6-32.7-43.2-36.8-70c-5.2-34.4-20.4-79.9-64-79.9s-58.7,45.5-64,79.9c-4.1,26.8-17.1,51.4-36.8,70l-20.5,19.3L74.2,250
		L250,74.2z M209.2,385c4.1-21.6,14.5-47,40.8-47s36.7,25.4,40.8,47L250,425.8L209.2,385z"/>
</g>
</svg>
