<?xml version="1.0" encoding="utf-8"?>
<!-- Generator: Adobe Illustrator 25.2.0, SVG Export Plug-In . SVG Version: 6.00 Build 0)  -->
<svg version="1.1" id="Layer_1" xmlns="http://www.w3.org/2000/svg" xmlns:xlink="http://www.w3.org/1999/xlink" x="0px" y="0px"
	 viewBox="0 0 650 650" style="enable-background:new 0 0 650 650;" xml:space="preserve">
<style type="text/css">
	.st0{fill:#27AAE1;}
</style>
<g>
	<path class="st0" d="M281.4,528v-38.2c0,0-2.2-76.7,43.5-76.7s43.5,76.7,43.5,76.7v37.6L469,401.2l-43.3-40.8
		c-19.7-18.6-32.7-43.2-36.8-70c-5.2-34.4-20.4-79.9-64-79.9s-58.7,45.5-64,79.9c-4.1,26.8-17.1,51.4-36.8,70l-43.3,40.8L281.4,528z
		"/>
</g>
<g>
	<path class="st0" d="M324.8,74.4L74.2,325.1l250.6,250.6l250.6-250.6L324.8,74.4z M149,325.1l175.8-175.8l175.8,175.8L324.8,500.9
		L149,325.1z"/>
</g>
<g>
	<path class="st0" d="M325,10L10,325l315,315l315-315L325,10z M46.5,325L324.8,46.6L603.2,325L324.8,603.4L46.5,325z"/>
</g>
</svg>
