<?xml version="1.0" encoding="utf-8"?>
<!-- Generator: Adobe Illustrator 25.2.0, SVG Export Plug-In . SVG Version: 6.00 Build 0)  -->
<svg version="1.1" id="Layer_1" xmlns="http://www.w3.org/2000/svg" xmlns:xlink="http://www.w3.org/1999/xlink" x="0px" y="0px"
	 viewBox="0 0 500 650" style="enable-background:new 0 0 500 650;" xml:space="preserve">
<style type="text/css">
	.st0{fill:#27AAE1;}
</style>
<path class="st0" d="M417.9,321.1c35.4-15,56.8-32.3,68.1-40.7c6.4-4.8,10.3-13,10.3-21.9c0-2.5-1.8-4.6-4-4.6H356l-80-185.9
	c7.6-7,12.4-17.1,12.4-28.3c0-21.2-17.2-38.4-38.3-38.4s-38.3,17.2-38.3,38.4C211.7,51,216.4,61,224,68l-80.5,186H7
	c-2.2,0-4,2-4,4.6c0,8.8,3.9,17.1,10.3,21.9c11.3,8.5,32.8,25.8,68.5,40.9L2.7,400.7L250,648.6l247.3-247.9L417.9,321.1z
	 M304.5,413.8c47.3,0,50.7-52,50.7-52c1.8-8.6,1.4-15.3,8.8-20.7l59.5,59.6L304.5,520V413.8z M199,236.6
	c3.9-11.4,12.6-18.9,22.3-18.9l57.2-0.1c9.7,0,18.4,7.4,22.3,18.8l6,17.6h-54.7h-4.8h-54.2L199,236.6z M135.8,341.3
	c7.1,5.4,6.7,12,8.5,20.5c0,0,0.8,52,50.7,52v105.6L76.5,400.7L135.8,341.3z"/>
</svg>
