<?xml version="1.0" encoding="utf-8"?>
<!-- Generator: Adobe Illustrator 25.2.1, SVG Export Plug-In . SVG Version: 6.00 Build 0)  -->
<svg version="1.1" id="Layer_1" xmlns="http://www.w3.org/2000/svg" xmlns:xlink="http://www.w3.org/1999/xlink" x="0px" y="0px"
	 viewBox="0 0 500 500" style="enable-background:new 0 0 500 500;" xml:space="preserve">
<style type="text/css">
	.st0{fill:#E2E0DF;}
</style>
<g>
	<path class="st0" d="M21.6,251.3l0-2.5c0-21.8,17.7-39.3,39.3-39.3h378.2c21.8,0,39.3,17.7,39.3,39.3v2.5
		c0,21.8-17.7,39.3-39.3,39.3H60.9C39.1,290.6,21.6,272.8,21.6,251.3z"/>
	<path class="st0" d="M248.7,21.6h2.5c21.8,0,39.3,17.7,39.3,39.3v378.2c0,21.8-17.7,39.3-39.3,39.3h-2.5
		c-21.8,0-39.3-17.7-39.3-39.3V60.9C209.5,39.2,227.1,21.6,248.7,21.6z"/>
</g>
</svg>
