<?xml version="1.0" encoding="utf-8"?>
<!-- Generator: Adobe Illustrator 25.2.1, SVG Export Plug-In . SVG Version: 6.00 Build 0)  -->
<svg version="1.1" id="Layer_1" xmlns="http://www.w3.org/2000/svg" xmlns:xlink="http://www.w3.org/1999/xlink" x="0px" y="0px"
	 viewBox="0 0 500 500" style="enable-background:new 0 0 500 500;" xml:space="preserve">
<style type="text/css">
	.st0{fill:#E2E0DF;}
</style>
<g>
	<path class="st0" d="M24.2,400.9v-1.8c0-15.8,12.9-28.7,28.7-28.7h395.3c15.8,0,28.7,12.9,28.7,28.7v1.8
		c0,15.8-12.9,28.7-28.7,28.7H52.8C37,429.6,24.2,416.6,24.2,400.9z"/>
	<path class="st0" d="M24.2,250.9v-1.8c0-15.8,12.9-28.7,28.7-28.7h395.3c15.8,0,28.7,12.9,28.7,28.7v1.8
		c0,15.8-12.9,28.7-28.7,28.7H52.8C37,279.6,24.2,266.6,24.2,250.9z"/>
	<path class="st0" d="M24.2,100.9v-1.8c0-15.8,12.9-28.7,28.7-28.7h395.3c15.8,0,28.7,12.9,28.7,28.7v1.8
		c0,15.8-12.9,28.7-28.7,28.7H52.8C37,129.6,24.2,116.7,24.2,100.9z"/>
</g>
</svg>
