<?xml version="1.0" encoding="utf-8"?>
<!-- Generator: Adobe Illustrator 25.2.1, SVG Export Plug-In . SVG Version: 6.00 Build 0)  -->
<svg version="1.1" id="Layer_1" xmlns="http://www.w3.org/2000/svg" xmlns:xlink="http://www.w3.org/1999/xlink" x="0px" y="0px"
	 viewBox="0 0 927.9 142.2" style="enable-background:new 0 0 927.9 142.2;" xml:space="preserve">
<style type="text/css">
	.st0{enable-background:new    ;}
	.st1{fill:#E2E0DF;}
	.st2{fill:#B89F66;}
	.st3{fill:#D2C3A3;}
	.st4{fill:#CBBD93;}
	.st5{fill:#BCAB76;}
	.st6{fill:#D3C4A3;}
	.st7{fill:#B9A067;}
	.st8{fill:#C3AF81;}
	.st9{fill:#DDD2BA;}
	.st10{fill:#DBCFB4;}
	.st11{fill:#B8A066;}
</style>
<g id="Layer_2_1_">
	<g id="Layer_1-2">
		<g class="st0">
			<path class="st1" d="M64.1,103.5h3l-6.2,28h-3L64.1,103.5z M67.4,94.1c1.2,0,2.1,0.9,2.1,2c0,1.6-1.5,2.6-2.6,2.6
				c-1.2,0-2.1-0.9-2.1-2C64.7,95.1,66.2,94.1,67.4,94.1z"/>
			<path class="st1" d="M93.4,112.5c0.1-0.6,0.3-1.4,0.3-2.1c0-3.5-2.7-4.9-6.1-4.9c-3.7,0-7.3,2.4-9.7,4.9l-4.6,21.1h-3l6.2-28h3
				l-0.9,4.2c2.5-2.4,6.2-4.9,10.1-4.9c4.8,0,8.2,2.3,8.2,6.9c0,0.5-0.2,1.7-0.3,2.4l-4.3,19.5h-3L93.4,112.5z"/>
			<path class="st1" d="M103.4,126l4.5-19.9h-4.6l0.6-2.7h4.6l1.7-7.7h3.1l-1.7,7.7h5.7l-0.6,2.7h-5.7l-4.3,19.5
				c-0.1,0.3-0.1,0.7-0.1,1.2c0,1.7,1,2.7,2.8,2.7c1.1,0,2.3-0.5,3-1l0.6,2.4c-1,0.8-2.4,1.3-4,1.3c-3.5,0-5.6-1.5-5.6-4.7
				C103.3,127.3,103.3,126.6,103.4,126z"/>
			<path class="st1" d="M134.3,102.8c7.5,0,11.9,5.3,11.9,12.1c0,1.2-0.3,2.8-0.5,3.5h-23.7c-0.1,0.3-0.1,1.2-0.1,1.6
				c0,5.2,3.4,9.5,10.3,9.5c2.8,0,6-1,8.5-3l1.2,2.2c-2.5,1.9-6.1,3.4-9.8,3.4c-8.4,0-13.4-5.1-13.4-12.4
				C118.8,110.5,125.6,102.8,134.3,102.8z M143.3,114.8c0-5.5-3.3-9.4-9.4-9.4c-5.6,0-10.6,4.9-11.6,10.7h20.9
				C143.3,115.8,143.3,115.2,143.3,114.8z"/>
			<path class="st1" d="M156.8,103.5h3l-1,4.5c2.9-3.4,5.6-5.1,10.6-5.1l-0.7,3.3c-0.3-0.1-1.1-0.2-2-0.2c-3.4,0-6.7,2.6-8.5,5.2
				l-4.5,20.4h-3L156.8,103.5z"/>
			<path class="st1" d="M195.9,103.5h3.1l-6.2,28h-3.1l0.9-4.2c-2.3,3-5.6,4.9-9.6,4.9c-6.4,0-11-4.2-11-11.5
				c0-9.4,5.9-17.9,14.8-17.9c4.6,0,8.2,2.3,10.1,5.5L195.9,103.5z M181.8,129.5c3.9,0,7.6-2.5,9.5-5.4l3-13.5
				c-1.4-2.8-4.8-5.1-9.3-5.1c-7,0-11.7,7.3-11.7,14.7C173.3,126,176.7,129.5,181.8,129.5z"/>
			<path class="st1" d="M218.8,102.8c4.9,0,8.2,1.9,10.1,5.1l-2.3,1.7c-1.6-2.8-4.5-4.1-7.6-4.1c-7.7,0-12.5,7-12.5,14.3
				c0,6.4,4.1,9.6,9.6,9.6c3.1,0,5.8-1.5,7.6-3.6l1.7,2.1c-2.4,2.6-5.4,4.2-9.6,4.2c-7.2,0-12.5-4.5-12.5-12.4
				C203.3,110.6,210.1,102.8,218.8,102.8z"/>
			<path class="st1" d="M232.6,126l4.5-19.9h-4.6l0.6-2.7h4.6l1.7-7.7h3.1l-1.7,7.7h5.7l-0.6,2.7h-5.7l-4.3,19.5
				c-0.1,0.3-0.1,0.7-0.1,1.2c0,1.7,1,2.7,2.8,2.7c1.1,0,2.3-0.5,3-1l0.6,2.4c-1,0.8-2.4,1.3-4,1.3c-3.5,0-5.6-1.5-5.6-4.7
				C232.5,127.3,232.5,126.6,232.6,126z"/>
			<path class="st1" d="M253,103.5h3l-6.2,28h-3L253,103.5z M256.3,94.1c1.2,0,2.1,0.9,2.1,2c0,1.6-1.5,2.6-2.6,2.6
				c-1.2,0-2.1-0.9-2.1-2C253.7,95.1,255.1,94.1,256.3,94.1z"/>
			<path class="st1" d="M261.2,103.5h3.3l4.7,24.5l15.6-24.5h3.5l-18.1,28h-3.4L261.2,103.5z"/>
			<path class="st1" d="M303.8,102.8c7.5,0,11.9,5.3,11.9,12.1c0,1.2-0.3,2.8-0.5,3.5h-23.7c-0.1,0.3-0.1,1.2-0.1,1.6
				c0,5.2,3.4,9.5,10.3,9.5c2.8,0,6-1,8.5-3l1.2,2.2c-2.5,1.9-6.1,3.4-9.8,3.4c-8.4,0-13.4-5.1-13.4-12.4
				C288.3,110.5,295.1,102.8,303.8,102.8z M312.9,114.8c0-5.5-3.3-9.4-9.4-9.4c-5.6,0-10.6,4.9-11.6,10.7h20.9
				C312.9,115.8,312.9,115.2,312.9,114.8z"/>
			<path class="st1" d="M372.8,112c0.1-0.2,0.2-1,0.2-1.7c0-3.1-2.4-4.8-5.1-4.8c-3,0-6.3,2.3-8.4,4.9l-4.6,21.1h-3.1l4.4-19.5
				c0.1-0.9,0.2-1.2,0.2-2c0-2.5-1.8-4.5-5.2-4.5c-2.9,0-6.1,2.3-8.4,4.9l-4.6,21.1h-3l6.2-28h3l-0.9,4.2c1.6-1.8,4.9-4.9,8.9-4.9
				c4.7,0,7,3.4,7,5.4v0.2c2.2-2.8,5.7-5.6,9.7-5.6c3.8,0,7.1,2.4,7.1,6.9c0,0.6-0.2,1.6-0.3,2.4l-4.3,19.5h-3L372.8,112z"/>
			<path class="st1" d="M407.9,103.5h3.1l-6.2,28h-3.1l0.9-4.2c-2.3,3-5.6,4.9-9.6,4.9c-6.4,0-11-4.2-11-11.5
				c0-9.4,5.9-17.9,14.8-17.9c4.6,0,8.2,2.3,10.1,5.5L407.9,103.5z M393.8,129.5c3.9,0,7.6-2.5,9.5-5.4l3-13.5
				c-1.4-2.8-4.8-5.1-9.3-5.1c-7,0-11.7,7.3-11.7,14.7C385.3,126,388.7,129.5,393.8,129.5z"/>
			<path class="st1" d="M414.8,142.2h-3l8.6-38.7h3l-0.9,4.2c2.3-3,5.6-4.9,9.6-4.9c6.4,0,10.9,4.3,10.9,11.6
				c0,9.4-5.9,17.9-14.7,17.9c-4.6,0-8.2-2.3-10.1-5.5L414.8,142.2z M431.2,105.5c-3.9,0-7.5,2.5-9.5,5.4l-3,13.5
				c1.4,2.8,4.8,5.1,9.3,5.1c7.1,0,11.7-7.3,11.7-14.6C439.7,109.1,436.3,105.5,431.2,105.5z"/>
			<path class="st1" d="M489,103.5h3.1l-6.2,28h-3.1l0.9-4.2c-2.3,3-5.6,4.9-9.6,4.9c-6.4,0-11-4.2-11-11.5
				c0-9.4,5.9-17.9,14.8-17.9c4.6,0,8.2,2.3,10.1,5.5L489,103.5z M475,129.5c3.9,0,7.6-2.5,9.5-5.4l3-13.5c-1.4-2.8-4.8-5.1-9.3-5.1
				c-7,0-11.7,7.3-11.7,14.7C466.5,126,469.8,129.5,475,129.5z"/>
			<path class="st1" d="M518.4,112.5c0.1-0.6,0.3-1.4,0.3-2.1c0-3.5-2.7-4.9-6.1-4.9c-3.7,0-7.3,2.4-9.7,4.9l-4.6,21.1h-3l6.2-28h3
				l-0.9,4.2c2.5-2.4,6.2-4.9,10.1-4.9c4.8,0,8.2,2.3,8.2,6.9c0,0.5-0.2,1.7-0.3,2.4l-4.3,19.5h-3L518.4,112.5z"/>
			<path class="st1" d="M555.9,92.8h3.1l-8.6,38.7h-3.1l0.9-4.2c-2.3,3-5.6,4.9-9.6,4.9c-6.4,0-11-4.2-11-11.5
				c0-9.4,5.9-17.9,14.8-17.9c4.6,0,8.2,2.3,10.1,5.5L555.9,92.8z M539.5,129.5c3.9,0,7.6-2.5,9.5-5.4l3-13.5
				c-1.4-2.8-4.8-5.1-9.3-5.1c-7,0-11.7,7.3-11.7,14.7C531,126,534.4,129.5,539.5,129.5z"/>
			<path class="st1" d="M591.5,102.8c4.9,0,8.2,1.9,10.1,5.1l-2.3,1.7c-1.6-2.8-4.5-4.1-7.6-4.1c-7.7,0-12.5,7-12.5,14.3
				c0,6.4,4.1,9.6,9.6,9.6c3.1,0,5.8-1.5,7.6-3.6l1.7,2.1c-2.4,2.6-5.4,4.2-9.6,4.2c-7.2,0-12.5-4.5-12.5-12.4
				C576,110.6,582.7,102.8,591.5,102.8z"/>
			<path class="st1" d="M626.7,112.5c0.1-0.5,0.3-1.6,0.3-2c0-3.5-2.7-4.9-6.3-4.9c-3.5,0-7.1,2.4-9.5,4.9l-4.6,21.1h-3l8.5-38.7h3
				l-3.3,14.9c2.5-2.4,6.2-4.9,10.1-4.9c4.8,0,8.2,2.3,8.2,6.9c0,0.5-0.2,1.8-0.3,2.4l-4.3,19.5h-3L626.7,112.5z"/>
			<path class="st1" d="M651.6,102.8c7.5,0,11.9,5.3,11.9,12.1c0,1.2-0.3,2.8-0.5,3.5h-23.7c-0.1,0.3-0.1,1.2-0.1,1.6
				c0,5.2,3.4,9.5,10.3,9.5c2.8,0,6-1,8.5-3l1.2,2.2c-2.5,1.9-6.1,3.4-9.8,3.4c-8.4,0-13.4-5.1-13.4-12.4
				C636,110.5,642.9,102.8,651.6,102.8z M660.6,114.8c0-5.5-3.3-9.4-9.4-9.4c-5.6,0-10.6,4.9-11.6,10.7h20.9
				C660.6,115.8,660.6,115.2,660.6,114.8z"/>
			<path class="st1" d="M684.4,102.8c4.9,0,8.2,1.9,10.1,5.1l-2.3,1.7c-1.6-2.8-4.5-4.1-7.6-4.1c-7.7,0-12.5,7-12.5,14.3
				c0,6.4,4.1,9.6,9.6,9.6c3.1,0,5.8-1.5,7.6-3.6l1.7,2.1c-2.4,2.6-5.4,4.2-9.6,4.2c-7.2,0-12.5-4.5-12.5-12.4
				C668.9,110.6,675.7,102.8,684.4,102.8z"/>
			<path class="st1" d="M707.9,118l-6.5,5.1l-1.9,8.4h-3l8.5-38.7h3l-5.9,26.5l19.9-15.8h4.2l-15.9,12.7l9.6,15.4h-3.7L707.9,118z"
				/>
			<path class="st1" d="M734.4,92.8h3l-8.5,38.7h-3L734.4,92.8z"/>
			<path class="st1" d="M744.5,103.5h3l-6.2,28h-3L744.5,103.5z M747.7,94.1c1.2,0,2.1,0.9,2.1,2c0,1.6-1.5,2.6-2.6,2.6
				c-1.2,0-2.1-0.9-2.1-2C745.1,95.1,746.6,94.1,747.7,94.1z"/>
			<path class="st1" d="M751.7,125.3c1.5,2.3,4.9,4.4,9.2,4.4c4.6,0,7.4-2.8,7.4-5.8c0-2.8-3.3-4.1-6.7-5.5
				c-3.9-1.6-8.2-3.4-8.2-7.5c0-4.3,3.7-8.1,10.2-8.1c4.8,0,8.7,2.1,10.2,4.6l-1.9,1.9c-1.2-2.1-4.8-3.9-8.5-3.9
				c-4.2,0-6.9,2.2-6.9,5.1c0,2.6,3.1,3.8,6.4,5.2c4.1,1.6,8.5,3.4,8.5,7.8s-3.8,8.8-10.6,8.8c-5.1,0-8.9-1.7-11.3-4.9L751.7,125.3z
				"/>
			<path class="st1" d="M779.1,126l4.5-19.9h-4.6l0.6-2.7h4.6l1.7-7.7h3.1l-1.7,7.7h5.7l-0.6,2.7h-5.7l-4.3,19.5
				c-0.1,0.3-0.1,0.7-0.1,1.2c0,1.7,1,2.7,2.8,2.7c1.1,0,2.3-0.5,3-1l0.6,2.4c-1,0.8-2.4,1.3-4,1.3c-3.5,0-5.6-1.5-5.6-4.7
				C779,127.3,779,126.6,779.1,126z"/>
		</g>
		<path class="st2" d="M467.6,2.4h5.4c8.6,0,13.7,5,15.3,15v3.8c0,6.1-2.1,10.1-6.3,12c0,2.4-3.3,4.1-9.9,5.3
			c-10.1,0-15.8-6.3-17.1-18.8c0-6.8,3.6-12,10.8-15.7C465.9,3,466.7,2.3,467.6,2.4C467.6,2.4,467.6,2.4,467.6,2.4z M465.8,13.7
			v11.2c0,5.5,2.4,8.2,7.2,8.2c3,0,4.8-3.7,5.4-11.2v-3.8c0-7.5-2.4-11.2-7.2-11.2C467.6,8.2,465.8,10.4,465.8,13.7z M471.2,16h0.9
			c0.8,0,2.3,1.2,4.5,3.7v0.8c-2.4,2.5-3.6,4.2-3.6,5.2h-0.9c-1,0-2.8-2-5.4-6L471.2,16z"/>
		<path class="st2" d="M490.1,2.4h4.6c5.2,0,9.2,0.5,11.9,1.5c3.9-0.8,7.9-1.4,11.9-1.5V17c-0.4,0-3.1-3.1-8.2-9.2h-6.4v10.7
			c3.1-1,4.6-1.8,4.6-2.3c2.5,0.8,3.7,1.6,3.7,2.3v8.4c-3.2-2.6-5.9-3.8-8.3-3.8v8.4c0,1.8,1.2,3.9,3.7,6.1l-4.6,0.8h-12.9v-0.8
			l3.7-3.8v-10c0-4.9,0.3-9.7,0.9-14.5c-0.2-0.9-1.7-2.9-4.6-6.1V2.4z"/>
		<path class="st2" d="M455.4,47.2c1.1,0,2.3,0.1,3.4,0.3c6.3-0.2,11.4-0.3,15.2-0.3h8.4l1.9,1.8c0.1-0.4,0.4-0.6,0.8-0.6l0.4,0.6
			v12.7h-0.8c-1.2-2.3-1.9-3.9-1.9-4.7v-1.2c-1.2,0-2.5-1.4-3.8-4.1h-4.2v15c0,1.4-0.2,2.8-0.4,4.1c0.3,0.3,0.4,0.7,0.4,1.2
			c-0.2,2.7-0.4,4.5-0.4,5.6c0,1.7,1.8,3.4,5.3,5v0.6h-19v-0.3c3-1.7,4.5-3.1,4.5-4.1c0-0.4,0.1-0.8,0.4-1.2
			c-0.2-1.9-0.4-3.7-0.4-5.6v-0.3c0.1-4,0.4-7.9,1.1-11.8c-0.6-2.7-1-5.5-1.1-8.2h-3.8c-0.9,0.8-2.9,4.1-6.1,10H455V49.2L455.4,47.2
			z"/>
		<path class="st2" d="M488.5,47.2h2.1c0.2,0,0.4,0.1,0.4,0.3l0.7-0.3h12.8l-3.9,3.9V52c0.1,2.2-0.2,4.4-0.7,6.5
			c0.5,0.6,0.7,2,0.7,4.1l0.7-0.3h7.1l0.7,0.3V51.1l-4-3.9h17.5c0,0.2-1.5,1.5-4.6,3.9v3.3c0,0.8-0.4,1.6-1.1,2.1
			c0.6,1.1,0.9,2.3,1.1,3.6v10c0,0.4-0.4,0.6-1.1,0.6c0.7,6.5,1.4,9.8,2.1,9.8l2.5,1.8c-0.4,0.8-0.7,1.2-1.1,1.2h-10.7
			c-1.2-0.1-2.4-0.4-3.6-0.9V82c0.5,0,1.4-0.8,2.9-2.4V67.1h-8.5V70c-0.6,1.6-0.9,3.4-1.1,5.1c0.7,1.6,1.2,3.3,1.4,5
			c0.3,0,1.5,1,3.5,2.9v0.3h-17.4v-0.6c3.1-1.6,4.6-3,4.6-4.2v-5.3c0-0.2,0.1-0.3,0.3-0.3c0-0.2-0.1-0.3-0.3-0.3l1.1-5
			c-0.4-1.1-0.6-2.3-0.7-3.5l0.3-2.1c-0.5,0-0.7-0.2-0.7-0.6V52c0-0.7-1.1-1.9-3.2-3.5V47.2z"/>
		<path class="st2" d="M521.4,47.2h6.7c1.3,0,2,0.2,2,0.6c1-0.2,2.1-0.3,3.2-0.3c2,0,4,0.2,6,0.6c0.2-0.6,1.2-0.9,3.2-0.9h7.9
			c0,0.4,0.1,0.6,0.4,0.6l-0.4,0.6v11l0.4,2.1l-0.8,0.3c-4.1-6.6-6.5-10-7.2-10.1h-7.1v11l0.8-0.3h1.6l0.8,0.3
			c0.3-0.6,1.7-1.3,4.4-2.1h0.7v0.3c0,1.5-0.1,5-0.4,10.4c0.2,0.3,0.3,0.6,0.4,0.9l-5.6-5h-2.8v11.8c0.2,0,1,0.1,2.4,0.3
			c1.6-0.1,3.2-0.2,4.8-0.6c0,0.2,0.1,0.3,0.4,0.3c1.3-2.6,2.6-3.8,4-3.8v-0.3c0-0.5-0.1-1-0.4-1.5c1.1-3.4,2.2-5.5,3.6-6.2
			c0,1.8,0.1,2.6,0.4,2.6l-0.4,0.6v12.2l0.4,0.6l-0.8,0.3h-8c-0.2,0-0.4,0.1-0.4,0.3l-0.8-0.3h-5.2l-2-0.3v0.3l-0.8-0.3
			c-1.1,0-5,0.2-11.5,0.6l-0.4-0.6c0-0.2,1.6-1.4,4.8-3.6v-8.3c-0.1-3.4,0.3-6.8,1.2-10.1c-0.7-1.7-1.1-3.5-1.2-5.3v-4.7l-4.4-3.3
			L521.4,47.2z"/>
		<path class="st2" d="M0,2h0.8C9.1,2,18.9,2.4,30,3.3L30.7,2l1.7,0.7h4.7c16.7,0,27,5.5,30.7,16.5v4c0,8.4-5,14.1-15,17.1v0.6
			c4.4,0.6,8.5,2.4,11.8,5.3c-0.4,0.6-0.7,1.3-0.8,2l2.3,1.2c0.1-0.8,0.8-1.3,1.6-1.2c3.1,4.7,4.7,9,4.7,13.1
			c-2.1,10.1-6,15.1-11.8,15.1c-1.6,0-3.2,0.9-4.7,2.7c-9.6,1.8-19.4,2.7-29.2,2.7H3.9c-1,0-1.6-0.4-1.6-1.3c0-0.6,2.6-2.8,7.9-6.6
			V47.4c0-1.9,0.8-4.3,2.4-7.2l-1.6-12.5c0.8-1.2,1.4-2.6,1.6-4c-1.6-2.2-2.4-3.9-2.4-5.2V9.9L0,2.6V2z M30.7,44.8v13.8
			c0,0.9-0.5,1.3-1.6,1.3c0.1,0.7,0.4,1.4,0.8,2c-0.5,2.4-0.8,4.8-0.8,7.2c0.8,0,1.6,1.1,2.4,3.3c13.7,0,20.5-4,20.5-11.9v-2.7
			C52.1,49.1,45,44.8,30.7,44.8z M30.7,11.2v25h7.1c5.8,0,9.2-3.5,10.3-10.5v-5.2C48.2,14.3,42.4,11.2,30.7,11.2z"/>
		<path class="st2" d="M71.8,2.2h9.3c5.4,0,11.1,0.2,17.1,0.6c2.6-0.4,5.1-0.6,7.7-0.6c23.3,0,35,7.3,35,22c0,2.9-1.8,6.4-5.4,10.3
			c-5.1,6.5-10.3,9.7-15.5,9.7V45c6.2,8.8,9.3,14.6,9.3,17.5c4.2,5.9,9.5,10.9,15.5,14.9c0,0.8,0.5,1.2,1.6,1.2v0.7
			c0,1.2-3.1,2-9.3,2.6c-4.9-0.4-9.6-0.6-14-0.6c-13.3-20.2-20.8-31-22.6-32.5l0.8,3.2v20.7c4.8,4.8,7.9,7.2,9.4,7.2v1.3H95
			c-1,0-1.5-0.7-1.5-2c-2.7,1.3-9.2,2.2-19.4,2.6c-0.7-0.3-1.5-0.5-2.3-0.6v-0.7l10-8.5V35.9l0.8-3.9c-0.6-1-0.9-2.1-0.8-3.2V13.2
			c0-2.3-3.3-5.7-10-10.4L71.8,2.2z M100.5,12.5l0.8,1.3v22l1.6-0.7h3.1c10.4,0,15.5-3.9,15.5-11.6c0-7.8-6.2-11.6-18.6-11.6h-0.8
			L100.5,12.5z"/>
		<path class="st2" d="M142.3,2.2h14.9c2.9,0.1,4.4,0.5,4.4,1.3c2.3-0.4,4.7-0.6,7-0.7c4.4,0.1,8.8,0.5,13.1,1.3
			c0.4-1.3,2.7-2,7.1-2h17.5c0,0.9,0.3,1.3,0.8,1.3l-0.8,1.3v24.2l0.8,4.6l-1.8,0.7c-9.1-14.6-14.3-22-15.8-22.3h-15.7v24.3l1.7-0.7
			h3.5l1.8,0.7c0.5-1.3,3.8-2.8,9.6-4.6h1.8v0.7c0,3.3-0.3,10.9-0.8,22.9c0.4,0.6,0.7,1.2,0.8,1.9l-12.3-11h-6.1v26
			c0.4,0,2.1,0.2,5.2,0.7c6-0.4,9.5-0.9,10.5-1.2c0,0.4,0.3,0.6,0.9,0.6c2.8-5.6,5.7-8.5,8.8-8.5V63c0.1-1.2-0.2-2.3-0.9-3.2
			c2.3-7.5,4.9-12.1,7.9-13.7c0,3.9,0.3,5.8,0.8,5.8l-0.8,1.3v26.8l0.8,1.3l-1.8,0.6h-17.6c-0.6,0-0.8,0.2-0.8,0.7l-1.8-0.7h-11.4
			l-4.4-0.6V82l-1.8-0.6c-2.5,0-11,0.4-25.4,1.2l-0.9-1.2c0-0.4,3.5-3.1,10.6-7.9V55.2c-0.1-7.5,0.8-15,2.6-22.2
			c-1.5-3.7-2.4-7.7-2.6-11.7V10.8l-9.6-7.2V2.2z"/>
		<path class="st2" d="M240.5,2.6h17.9c4.7,17.5,8.3,30.2,10.9,38.3l-0.7,1.2v1.3c0,0.5,0.2,0.7,0.7,0.7l-0.7,1.3V48
			c0,1.7,1.8,4.5,5.4,8.4c2.6,12.1,4.7,18.2,6.2,18.2c5.7,3.9,8.5,6.1,8.5,6.5c0,0.9-0.5,1.3-1.5,1.3c-5.7-0.4-8.6-1.1-8.6-1.9
			c-2,0.8-4.1,1.3-6.2,1.2h-11c-1.1,0-2.1,0.2-3.1,0.7c-1-0.5-2.1-0.7-3.1-0.7h-4.6v-1.2c1,0,3.4-2,7-5.9c-0.1-2.2-0.6-4.4-1.5-6.5
			c1,0,1.5-0.4,1.5-1.3c-1.5,0-2.8-3-3.9-9h-16.4c-3.1,10.2-4.7,16-4.7,17.5c0.7,0,2.7,1.7,6.2,5.2v1.2h-7.8c-2.1,0-4.2,0.2-6.2,0.7
			c-2-0.4-4.1-0.7-6.2-0.7h-7.7v-1.2c6.9-3.8,11.7-10.5,13.2-18.2L239.7,11v-0.7c-4.1-2.8-6.2-4.8-6.2-5.8
			C236.9,3.2,239.3,2.6,240.5,2.6z M246,29.1c-3.1,10-4.7,16.1-4.7,18.2c2.1,0,3.1,0.9,3.1,2.6l6.2-3.2l-3.9-17.5L246,29.1z"/>
		<path class="st2" d="M285.5,2.2c2.5,0,5.1,0.2,7.6,0.7c14-0.4,25.2-0.7,33.5-0.7H345l4.1,3.9c0.2-0.8,0.9-1.3,1.8-1.2l0.8,1.2v28
			H350c-2.8-5.1-4.1-8.6-4.1-10.4v-2.7c-2.8,0-5.6-3-8.4-9.1h-9.3v33.2c-0.1,3.1-0.3,6.1-0.8,9.1c0.6,0.7,0.9,1.7,0.8,2.6
			c-0.5,5.9-0.8,10-0.8,12.4c0,3.8,3.9,7.4,11.7,11v1.3h-41.9V81c6.7-3.9,10-6.9,10-9.1c0-0.9,0.3-1.8,0.8-2.6
			c-0.5-4.1-0.8-8.2-0.8-12.4v-0.7c0.1-8.7,1-17.4,2.5-26c-1.7-7.8-2.5-13.9-2.5-18.2h-8.4c-2,1.7-6.5,9-13.4,22.1h-0.8V6.8
			L285.5,2.2z"/>
		<path class="st2" d="M358.7,2.2h4.7c0.5,0,0.8,0.2,0.8,0.7l1.6-0.7h28.2l-8.6,8.6v1.9c0.1,4.9-0.4,9.7-1.6,14.4
			c1.1,1.4,1.6,4.4,1.6,9.1l1.6-0.7h15.7l1.6,0.7V10.8l-8.6-8.6h38.6c0,0.4-3.4,3.3-10.2,8.6V18c0.1,1.9-0.8,3.6-2.4,4.6
			c1.6,3.7,2.4,6.3,2.4,7.8v22.3c0,0.9-0.8,1.3-2.4,1.3c1.6,14.4,3.2,21.6,4.7,21.6l5.5,4c-0.8,1.7-1.5,2.6-2.3,2.6h-23.6
			c-2.7-0.2-5.4-0.8-7.9-1.9v-1.3c1,0,3.1-1.7,6.3-5.2V46.2h-18.9v6.5c-1.5,4.9-2.3,8.7-2.3,11.2c1.6,3.5,2.7,7.3,3.2,11.1
			c0.7,0,3.3,2.2,7.8,6.5v0.7h-38.5v-1.2c6.8-3.6,10.2-6.7,10.2-9.2V59.9c0-0.4,0.2-0.7,0.8-0.7c0-0.4-0.2-0.7-0.8-0.7l2.3-11.1
			c-0.9-2.5-1.4-5.1-1.6-7.8l0.8-4.6c-1,0-1.5-0.4-1.5-1.3v-21c0-1.6-2.4-4.2-7.1-7.8L358.7,2.2z"/>
		<path class="st2" d="M555.5,2.6h35.1c-0.5,1.2-2.5,3.2-5.7,6.1c3.3,7.6,4.9,12.1,4.9,13.6l-1.6-0.7h-0.8c2.6,5.4,5.6,10.6,9,15.6
			c0.2,2.1,0.8,4.1,1.6,6.1h0.8L611,8c-0.4,0-2-1.6-4.8-4.7V2.6h18.7v2.7c0,2.3-0.5,3.4-1.6,3.4c2.2,4.4,3.2,7.6,3.2,9.6h-1.7
			c3.1,2.5,6.9,10.9,11.4,25.1h0.8c0-3.3,3.8-12.2,11.4-26.5c0.5,0,0.8-0.5,0.8-1.3h-1.7c0.3-2.3,0.9-4.6,1.7-6.8
			c0-0.5-1.6-2.3-4.9-5.4V2.6H668v0.7c-4.9,5.6-9.8,15.1-14.6,28.5c-0.8,0-1.7,0.9-2.5,2.7c0.4,0.6,0.7,1.3,0.8,2.1
			c0,1.3-1.6,4-4.9,8.1c0,4.3-4.6,17.2-13.9,38.7h-0.7c-4.4-11.1-7.4-20.4-9-27.8c-1.8,0-4.8-6.3-9-19h-0.8
			c-3.6,10.8-6.9,17.6-9.8,20.3l-0.8,1.3l0.8,3.4c-0.9,2.9-3.4,6.9-7.3,12.2l0.8,3.4c-1.1,4.1-2.2,6.2-3.3,6.2l-21.1-54.3
			c0.4-0.6,0.7-1.3,0.8-2.1l-2.5-1.3l2.5-3.4c-2.2-2.3-3.2-4.1-3.2-5.5h-0.8l-1.7,0.7c0-4.8-4.1-9.3-12.2-13.6V2.6z"/>
		<path class="st2" d="M670.5,2.6h39.1L699.5,11v28.7c-0.6,1.7-1.2,3.4-1.6,5.2v2.6c0,1.9,0.5,3.7,1.6,5.2c0,0.9-0.3,3.3-0.8,7.1
			c0.6,6.5,0.8,11.3,0.8,14.4c4.7,2.2,7.1,4.5,7.1,7.2l-1.6,0.7h-34.5v-0.7l10.1-8.5V50.8c0-0.4-0.2-0.7-0.7-0.7l0.7-1.2V15
			c0-3.4-3.1-7.1-9.4-11.1L670.5,2.6z"/>
		<path class="st2" d="M713.8,2.2h41.4c0,0.6-3.8,3.4-11.5,8.5v7.8c-1.2,0-1.7,0.2-1.7,0.7c1.2,15.3,1.7,24.8,1.7,28.5v22.8
			c0.2,0.9,1,1.4,1.8,1.3h9.6c1.5-0.5,7.1-10.9,16.8-31.2h1.7v28c-0.8,4.3-1.9,6.5-3.5,6.5l4.4,5.8c-0.8,0.4-1.7,0.6-2.7,0.7
			c-10.7,0-18.4,0.2-22.9,0.7c-8.7-0.4-18.7-0.7-30-0.7h-7.9v-0.7l11.5-8.5v-3.8c0-2.6,0.2-5.3,0.8-7.8c-0.6-2.6-0.9-5.2-0.8-7.8
			v-0.7c0-0.5-0.3-0.7-0.9-0.7c0.6-0.6,1.2-3.4,1.8-8.4c-0.6-9.9-0.8-19.2-0.8-27.9v-2c0-0.4-0.3-0.7-0.9-0.7l0.9-1.2
			c-0.1-0.8-2.7-2.7-8-5.9L712,2.9L713.8,2.2z"/>
		<path class="st2" d="M786.9,2.2h14.5c19.4,0,32.6,5.6,39.5,16.8c0,2,2.1,7,6.3,14.9c0.6,4.4,0.9,7,0.9,7.7
			c-2,18.1-6.8,27.1-14.4,27.1c-4.7,5.6-7.4,8.4-8.1,8.4c-9,2.9-18.4,4.5-27.9,4.6c-6.3-0.4-13.2-0.6-20.7-0.6h-1.7v-0.7l9.9-7.7
			v-5.2l0.8-7.7l1.8,0.6h0.9v-0.6c-2.4-4.7-3.6-7.7-3.6-9v-3.3c0-11.5,0.6-20.1,1.7-25.8c-1.2-10.3-3.8-15.5-8.1-15.5V4.8
			C782.8,3.1,785.5,2.2,786.9,2.2z M804.9,12.6l0.9,1.2v56.8h0.9c10.5,0,17.1-7.8,19.8-23.3v-7.7c0-0.4,0.3-0.7,0.9-0.7l-0.9-1.2
			v-2.7c-2.1-14.6-7.5-21.9-16.2-21.9L804.9,12.6z"/>
		<path class="st3" d="M869.8,99.2c-0.9-1.1,0.4-1.3,0.7-2l10.5,4.2c0,1.3-1.2,1.2-1.9,1.6L869.8,99.2z"/>
		<path class="st4" d="M833.8,83.7c0.8,1.6,3.6,3,0.4,4.8C833.4,87,830.7,85.6,833.8,83.7z"/>
		<path class="st5" d="M879.1,103l1.9-1.6c1,0.3,2.9,0.7,2.4,1.7C882.3,105.2,880.6,103.7,879.1,103z"/>
		<path class="st6" d="M865.8,87.9c-0.5,1.5-1.8,2.5-3.3,2.6c0.7-1.6,1.2-3.1,1.8-4.5L865.8,87.9z"/>
		<g>
			<path class="st7" d="M921.1,77.3l6.8,3.7c-5.4-0.6-6.7,0.9-7.1,4.9c-0.8,6.2-6.5,5.3-10.7,4.8c-4.9-0.6-7-4.9-7.2-9.3
				c-0.1-2.6-0.4-4.3-3.1-5c-1.1-0.1-2.6,0.1-1.8-1.9c3.9,0.8,7.4,0.8,11-1.6s7,0.5,10.2,2.5C920.6,75.3,920.5,76.6,921.1,77.3z"/>
			<path class="st8" d="M898,74.5l1.8,1.9c-10.6-1.5-17.7,5.7-25.9,10.3c0-1.3-1.9-2.6,0-3.8c3.8-0.6,6.6-3.3,9.8-5.2
				C888.1,74.9,892.8,73.4,898,74.5z"/>
			<path class="st9" d="M919.2,75.4l1.6-2c1.5,1.2,0.5,2.6,0.3,4"/>
			<path class="st2" d="M825.3,126.4c5.9-6.5,11.1-13.6,18-19c1.1-0.9,2.5-2.4,3.9-1c6.1,5.9,8.9,0.9,11.7-3.6
				c2.1,2,4.3,3.9,6.5,5.6c1.3,0.9,3.3,2.5,4.3-0.7c1.8-2.1,0.8-3.2-1.2-4.2c-2.8-1.3-5.7-2.7-7.7-5.1c3,2.9,6.7,4.9,10.7,6.1
				c1.5-0.7,3.2,2.4,4.5-0.2c-2.2-1.5-5.2-2.1-6.3-5.1c0.4-0.6,0.9-1.2,0.7-2c-0.6-0.4-1.7-1-1.7-1.3c0.4-1.5,1.8-0.9,2.6-0.6
				c4.1,1.6,6.7,1.1,6.8-4c-3,1.1-5.7,0.4-9-0.7l4.6-4.1c1.1-1.2,0.3-2.5,0-3.8c-4.8-1.7-5.2,3.6-8.1,5.1c-3.9,2.2-0.2-1.9-1.5-1.9
				c-0.2-1.5,0.5-3.2-2-3.9c-2.1-0.6-2.6,0.8-3.4,1.9s-2,2.4-2.2,3.8c-0.8,5-3.5,3.8-6.4,2.2c-2.6-1.4-3.7-4-5-6.5
				c-1.5-2.7-1.5-6.2-4.5-8c-1.5,1.4-2.4,3-1.8,5.1c0.4,0.3,0.4,0.5,0,0.7c0-0.1,0-0.2,0-0.3c-0.6-1.5-1.6-2.9-3-3.8
				c-0.3-0.2-0.5-0.3-0.7-0.6c-0.9-1.1-1.8-1.7-2.4,0.2c0.2,2.2,3.5,4,0.9,6.7c-1.2,1.7,1.2,3.1,0.4,4.8c3.2,3.2,6.8,5.8,11.5,6.2
				c4.4,0.3,4.6,2.1,1.9,5c-1,1.1-2.1,2.1-3.3,3c-4.8,3.6-9.3,7.5-13.5,11.9c-2.2,2.4-4.3,5-6.2,7.7c-3.2,4.3-13.1,14-31.7,2
				C793,124.3,811.3,141.7,825.3,126.4z"/>
			<path class="st10" d="M839,82.4l0.7-1.4c0.6,1.2,2.1,2.5,0.8,3.6C840,85.1,839.2,83.4,839,82.4z"/>
			<path class="st11" d="M898,32.3c8-11,1.8-18.7,0-24.5c-5.4,5.9-12.7,0-17.4,22.2l0,0"/>
			<path class="st11" d="M898,32.3L898,32.3"/>
			<path class="st11" d="M898,32.3L898,32.3"/>
			<path class="st11" d="M880.7,30L880.7,30c-6.4-7.1-15.2-8.5-24.3-10.6c1.5,7.4,5.3,12.6,10.8,17c-4.2,2.2-8,4-8.3,8.8
				c2.3-1.4,4-4.5,8.1-2.5c-2.4,3.3-6.1,4.7-8.8,7.2c4,5.5,10,2.5,15.1,3.5c-0.5,2.3-1,4.6-1.2,6.9c-0.2,2.8-1.3,6.2,3.1,7.1l0,0
				v-2.3c0.2-5.3,2.3-9.4,8-12.5c-0.9,3.9-1.7,7-2.4,10l0,0c-0.4,7-4.5,12.5-7.5,18.4c9.3-6,9.1-16.6,12.4-26.4
				c3.3,5.3,7.3,9.9,12.4,8.2c4.6-1.5,3.3-7.7,3.1-12.7c3.3,2.6,6.3,4.6,7.7,8.1c0.2,0.6-1.5,1.6,0.3,1.9c1,0.2,1.7-0.5,2.2-1.4
				c0.8-1.5,0.2-2.9-0.4-4.3c-1.7-3.9-4.2-7.2-8.1-11c9.5,0.1,16.9-2.3,22-10.3c-8.3-1.8-16.2-2.8-24.2-1.6l-2.5,0.6"/>
		</g>
	</g>
</g>
</svg>
